<svg width="287" height="202" viewBox="0 0 287 202" fill="none" xmlns="http://www.w3.org/2000/svg">
<path d="M164.731 29.8944C166.091 30.1957 167.373 30.6776 168.576 31.3387C169.778 31.9997 170.799 32.811 171.633 33.7702C172.468 34.7287 173.069 35.8187 173.436 37.0396C173.803 38.2589 173.829 39.5794 173.516 40.9972C173.26 42.155 172.856 43.122 172.306 43.8952C171.755 44.6691 171.123 45.334 170.409 45.8892C169.695 46.4443 168.941 46.9309 168.152 47.3475C167.361 47.7648 166.613 48.1611 165.91 48.5348C165.204 48.9101 164.566 49.3243 163.997 49.7744C163.427 50.2252 163.029 50.7601 162.801 51.3775C162.672 51.6835 162.481 51.9288 162.228 52.1148C161.974 52.3025 161.688 52.3593 161.37 52.29L158.073 51.5589C157.755 51.4889 157.498 51.3106 157.304 51.024C157.11 50.7383 157.061 50.4401 157.161 50.1279C157.469 49.0113 157.926 48.0724 158.535 47.3117C159.143 46.551 159.818 45.8962 160.562 45.3473C161.306 44.7983 162.078 44.325 162.879 43.9255C163.68 43.5253 164.426 43.1368 165.117 42.7584C165.807 42.3808 166.397 41.979 166.884 41.5563C167.372 41.1335 167.683 40.6173 167.818 40.0092C168.061 38.9098 167.799 37.9023 167.03 36.9874C166.261 36.0733 165.11 35.4466 163.578 35.1063C161.12 34.5613 159.04 35.3913 157.338 37.5955C157.124 37.882 156.918 38.0868 156.725 38.2106C156.53 38.3352 156.245 38.3554 155.868 38.2713L152.355 37.4927C152.095 37.4351 151.889 37.2981 151.74 37.0832C151.591 36.8683 151.548 36.6153 151.612 36.3256C151.864 35.3189 152.405 34.3534 153.231 33.4277C154.057 32.5027 155.065 31.7241 156.251 31.0903C157.438 30.4581 158.765 30.0151 160.231 29.7636C161.699 29.5105 163.198 29.5541 164.731 29.8944ZM161.01 54.9427C161.327 55.0128 161.577 55.1895 161.756 55.4729C161.936 55.7556 161.992 56.0561 161.921 56.3746L161.075 60.1952C161.005 60.5144 160.829 60.7635 160.546 60.9434C160.263 61.124 159.964 61.1793 159.646 61.1085L155.915 60.2816C155.596 60.2099 155.347 60.0348 155.167 59.7506C154.986 59.4679 154.931 59.1682 155.002 58.849L155.847 55.0276C155.918 54.7099 156.094 54.46 156.377 54.2794C156.66 54.1003 156.96 54.0442 157.278 54.1151L161.01 54.9427Z" fill="#FEC670"/>
<path d="M168.884 66.4185C169.832 66.2636 170.777 66.2425 171.718 66.3593C172.659 66.4746 173.519 66.7323 174.3 67.1332C175.08 67.5358 175.744 68.08 176.291 68.7683C176.84 69.4574 177.194 70.2967 177.356 71.2847C177.487 72.0929 177.475 72.817 177.321 73.4531C177.166 74.09 176.93 74.6787 176.614 75.2182C176.298 75.7562 175.941 76.2616 175.54 76.7311C175.14 77.2013 174.762 77.6459 174.407 78.0671C174.05 78.4884 173.747 78.9174 173.497 79.3518C173.247 79.7863 173.128 80.2309 173.14 80.6848C173.136 80.9145 173.076 81.1208 172.962 81.3053C172.847 81.4899 172.678 81.6004 172.457 81.637L170.156 82.0131C169.934 82.0497 169.724 82.0006 169.525 81.8667C169.328 81.7336 169.221 81.5545 169.205 81.3287C169.117 80.5337 169.17 79.8159 169.366 79.1712C169.56 78.5281 169.826 77.934 170.163 77.3921C170.499 76.8502 170.873 76.348 171.284 75.8863C171.696 75.4253 172.075 74.9847 172.421 74.5642C172.766 74.1461 173.041 73.7373 173.247 73.3418C173.451 72.9447 173.52 72.5352 173.451 72.1101C173.325 71.3439 172.899 70.7646 172.172 70.3746C171.444 69.9853 170.547 69.8778 169.477 70.053C167.762 70.3333 166.641 71.3992 166.114 73.2484C166.049 73.4866 165.971 73.6704 165.877 73.7996C165.785 73.9297 165.606 74.0153 165.344 74.0581L162.893 74.4599C162.711 74.4895 162.545 74.4544 162.393 74.3548C162.242 74.2543 162.15 74.1041 162.118 73.9016C162.022 73.1923 162.122 72.434 162.416 71.6289C162.708 70.8238 163.155 70.0662 163.754 69.3569C164.353 68.6469 165.091 68.024 165.966 67.4867C166.842 66.9487 167.814 66.5929 168.884 66.4185ZM172.904 83.4293C173.125 83.3935 173.331 83.4434 173.519 83.5781C173.707 83.7135 173.819 83.8926 173.855 84.1137L174.291 86.7812C174.327 87.0031 174.277 87.2087 174.143 87.3963C174.008 87.5847 173.829 87.6961 173.608 87.7327L171.004 88.1586C170.782 88.1952 170.577 88.1461 170.39 88.0114C170.201 87.8759 170.089 87.6976 170.053 87.4757L169.617 84.8083C169.581 84.5871 169.63 84.3816 169.765 84.1932C169.9 84.0055 170.079 83.8926 170.3 83.856L172.904 83.4293Z" fill="#FEC670"/>
<g opacity="0.2">
<path opacity="0.2" d="M168.884 66.4185C169.832 66.2636 170.777 66.2425 171.718 66.3593C172.659 66.4746 173.519 66.7323 174.3 67.1332C175.08 67.5358 175.744 68.08 176.291 68.7683C176.84 69.4574 177.194 70.2967 177.356 71.2847C177.487 72.0929 177.475 72.817 177.321 73.4531C177.166 74.09 176.93 74.6787 176.614 75.2182C176.298 75.7562 175.941 76.2616 175.54 76.7311C175.14 77.2013 174.762 77.6459 174.407 78.0671C174.05 78.4884 173.747 78.9174 173.497 79.3518C173.247 79.7863 173.128 80.2309 173.14 80.6848C173.136 80.9145 173.076 81.1208 172.962 81.3053C172.847 81.4899 172.678 81.6004 172.457 81.637L170.156 82.0131C169.934 82.0497 169.724 82.0006 169.525 81.8667C169.328 81.7336 169.221 81.5545 169.205 81.3287C169.117 80.5337 169.17 79.8159 169.366 79.1712C169.56 78.5281 169.826 77.934 170.163 77.3921C170.499 76.8502 170.873 76.348 171.284 75.8863C171.696 75.4253 172.075 74.9847 172.421 74.5642C172.766 74.1461 173.041 73.7373 173.247 73.3418C173.451 72.9447 173.52 72.5352 173.451 72.1101C173.325 71.3439 172.899 70.7646 172.172 70.3746C171.444 69.9853 170.547 69.8778 169.477 70.053C167.762 70.3333 166.641 71.3992 166.114 73.2484C166.049 73.4866 165.971 73.6704 165.877 73.7996C165.785 73.9297 165.606 74.0153 165.344 74.0581L162.893 74.4599C162.711 74.4895 162.545 74.4544 162.393 74.3548C162.242 74.2543 162.15 74.1041 162.118 73.9016C162.022 73.1923 162.122 72.434 162.416 71.6289C162.708 70.8238 163.155 70.0662 163.754 69.3569C164.353 68.6469 165.091 68.024 165.966 67.4867C166.842 66.9487 167.814 66.5929 168.884 66.4185ZM172.904 83.4293C173.125 83.3935 173.331 83.4434 173.519 83.5781C173.707 83.7135 173.819 83.8926 173.855 84.1137L174.291 86.7812C174.327 87.0031 174.277 87.2087 174.143 87.3963C174.008 87.5847 173.829 87.6961 173.608 87.7327L171.004 88.1586C170.782 88.1952 170.577 88.1461 170.39 88.0114C170.201 87.8759 170.089 87.6976 170.053 87.4757L169.617 84.8083C169.581 84.5871 169.63 84.3816 169.765 84.1932C169.9 84.0055 170.079 83.8926 170.3 83.856L172.904 83.4293Z" fill="black"/>
</g>
<path d="M190.879 70.6097C191.096 70.7646 191.228 70.9772 191.274 71.2474C191.319 71.5183 191.265 71.762 191.111 71.9792L189.258 74.5883C189.103 74.8063 188.891 74.9379 188.621 74.9831C188.35 75.0298 188.107 74.9745 187.89 74.8203L185.343 73.0078C185.125 72.8528 184.995 72.641 184.949 72.3709C184.902 72.0991 184.957 71.8562 185.112 71.639L186.965 69.0291C187.119 68.8119 187.331 68.6803 187.602 68.6344C187.872 68.5884 188.115 68.6429 188.332 68.7979L190.879 70.6097ZM201.655 52.9269C202.582 53.5864 203.395 54.358 204.091 55.2401C204.788 56.123 205.299 57.0581 205.621 58.0462C205.944 59.0358 206.05 60.0472 205.938 61.0835C205.826 62.1206 205.427 63.1227 204.739 64.0912C204.177 64.8823 203.566 65.481 202.906 65.8882C202.245 66.2962 201.557 66.5952 200.842 66.7852C200.127 66.9759 199.405 67.1021 198.678 67.1651C197.949 67.2274 197.26 67.2866 196.61 67.3442C195.96 67.4018 195.347 67.5101 194.776 67.6681C194.202 67.8254 193.732 68.1018 193.365 68.4942C193.17 68.6834 192.948 68.8072 192.698 68.8672C192.447 68.9271 192.214 68.8796 191.997 68.7247L189.745 67.1223C189.528 66.9682 189.391 66.7517 189.336 66.4745C189.281 66.1973 189.339 65.9568 189.514 65.7528C190.102 65.01 190.745 64.4486 191.446 64.0694C192.146 63.691 192.863 63.4123 193.599 63.2356C194.332 63.0588 195.066 62.9475 195.797 62.9031C196.527 62.8572 197.213 62.8019 197.854 62.7373C198.495 62.6726 199.066 62.559 199.569 62.3954C200.071 62.2319 200.47 61.9431 200.764 61.5281C201.298 60.7767 201.42 59.9351 201.132 59.0007C200.845 58.0672 200.177 57.2279 199.132 56.4835C197.452 55.2892 195.62 55.251 193.638 56.3691C193.384 56.5162 193.165 56.6066 192.979 56.6377C192.793 56.6688 192.573 56.5933 192.315 56.4111L189.915 54.7037C189.737 54.5775 189.627 54.4093 189.582 54.1999C189.538 53.9889 189.587 53.7865 189.727 53.5887C190.237 52.9105 190.952 52.3546 191.869 51.9209C192.787 51.4873 193.793 51.2218 194.889 51.1237C195.984 51.0256 197.124 51.1143 198.309 51.3931C199.492 51.6695 200.608 52.1818 201.655 52.9269Z" fill="#FEC670"/>
<g opacity="0.6">
<path opacity="0.6" d="M190.879 70.6097C191.096 70.7646 191.228 70.9772 191.274 71.2474C191.319 71.5183 191.265 71.762 191.111 71.9792L189.258 74.5883C189.103 74.8063 188.891 74.9379 188.621 74.9831C188.35 75.0298 188.107 74.9745 187.89 74.8203L185.343 73.0078C185.125 72.8528 184.995 72.641 184.949 72.3709C184.902 72.0991 184.957 71.8562 185.112 71.639L186.965 69.0291C187.119 68.8119 187.331 68.6803 187.602 68.6344C187.872 68.5884 188.115 68.6429 188.332 68.7979L190.879 70.6097ZM201.655 52.9269C202.582 53.5864 203.395 54.358 204.091 55.2401C204.788 56.123 205.299 57.0581 205.621 58.0462C205.944 59.0358 206.05 60.0472 205.938 61.0835C205.826 62.1206 205.427 63.1227 204.739 64.0912C204.177 64.8823 203.566 65.481 202.906 65.8882C202.245 66.2962 201.557 66.5952 200.842 66.7852C200.127 66.9759 199.405 67.1021 198.678 67.1651C197.949 67.2274 197.26 67.2866 196.61 67.3442C195.96 67.4018 195.347 67.5101 194.776 67.6681C194.202 67.8254 193.732 68.1018 193.365 68.4942C193.17 68.6834 192.948 68.8072 192.698 68.8672C192.447 68.9271 192.214 68.8796 191.997 68.7247L189.745 67.1223C189.528 66.9682 189.391 66.7517 189.336 66.4745C189.281 66.1973 189.339 65.9568 189.514 65.7528C190.102 65.01 190.745 64.4486 191.446 64.0694C192.146 63.691 192.863 63.4123 193.599 63.2356C194.332 63.0588 195.066 62.9475 195.797 62.9031C196.527 62.8572 197.213 62.8019 197.854 62.7373C198.495 62.6726 199.066 62.559 199.569 62.3954C200.071 62.2319 200.47 61.9431 200.764 61.5281C201.298 60.7767 201.42 59.9351 201.132 59.0007C200.845 58.0672 200.177 57.2279 199.132 56.4835C197.452 55.2892 195.62 55.251 193.638 56.3691C193.384 56.5162 193.165 56.6066 192.979 56.6377C192.793 56.6688 192.573 56.5933 192.315 56.4111L189.915 54.7037C189.737 54.5775 189.627 54.4093 189.582 54.1999C189.538 53.9889 189.587 53.7865 189.727 53.5887C190.237 52.9105 190.952 52.3546 191.869 51.9209C192.787 51.4873 193.793 51.2218 194.889 51.1237C195.984 51.0256 197.124 51.1143 198.309 51.3931C199.492 51.6695 200.608 52.1818 201.655 52.9269Z" fill="white"/>
</g>
<path d="M132.953 139.534H105.318V72.5087C105.318 60.3882 115.135 50.5615 127.245 50.5615H129.799C141.908 50.5615 151.726 60.3875 151.726 72.5087V120.747C151.724 131.123 143.321 139.534 132.953 139.534Z" fill="#263238"/>
<path d="M172.135 152.094C172.81 145.476 172.784 141.066 172.726 140.219C172.49 136.792 171.877 136.235 167.091 130.163C160.63 121.967 155.116 114.599 149.282 107.269C145.118 102.036 140.742 101.231 136.465 101.468C133.477 101.634 139.308 116.015 142.246 124.523L159.01 142.572C159.526 143.284 159.763 144.162 159.677 145.038L158.648 160.403L163.668 167.124C163.668 167.123 171.271 160.562 172.135 152.094Z" fill="#FFA8A7"/>
<path d="M120.317 101.934C117.076 102.157 111.179 102.676 111.179 102.676C107.777 104.577 106.917 106.135 106.284 110.658C106.015 112.582 107.581 117.716 108.927 125.01L111.481 138.537L111.204 145.245C109.878 149.339 103.141 163.001 100.5 170.5C115.5 172.5 128.622 171.768 138.5 170.5C146.033 169.532 151.672 171.802 153 170C152.724 162.592 150.044 151.603 149.916 143.862C149.862 140.61 150.057 137.331 150.183 133.589C155.237 129.434 155.295 122.524 152.538 118.056C146.134 107.678 139.907 101.144 135.782 101.479L120.317 101.934Z" fill="#27DEBF"/>
<path opacity="0.6" d="M120.317 101.934C117.076 102.157 111.179 102.676 111.179 102.676C107.776 104.577 106.917 106.135 106.284 110.658C106.014 112.582 107.581 117.716 108.927 125.01L111.481 138.537L101 147.5C99.674 151.593 108.297 166.755 90.7969 171.255C103.784 178.509 139.003 175.318 146.5 173C154.033 172.032 149.516 165.389 150.844 163.586C152.538 156.5 150.044 151.603 149.916 143.862C149.862 140.61 150.057 137.331 150.183 133.589C155.237 129.434 155.295 122.524 152.538 118.056C146.133 107.678 139.907 101.144 135.782 101.479L120.317 101.934Z" fill="white"/>
<path opacity="0.1" d="M140.13 133.701C140.13 133.701 134.198 138.309 127.428 135.906C120.658 133.503 119.67 127.58 119.67 127.58C119.67 127.58 118.951 135.326 127.491 137.968C135.732 140.516 140.13 133.701 140.13 133.701Z" fill="black"/>
<path d="M148.173 80.6708C147.917 91.9122 144.272 94.6903 142.446 95.4883C140.619 96.2864 137.094 95.7998 133.672 95.2329V101.98C133.672 101.98 137.621 106.122 137.325 109.213C137.022 112.31 131.119 112.653 126.684 109.628C123.448 107.421 121.136 104.898 120.128 103.702C119.761 103.267 119.562 102.72 119.562 102.15V86.2759C119.562 86.2759 117.688 88.2637 114.369 85.9886C111.059 83.7213 110.772 79.4896 112.798 77.0947C114.242 75.3942 117.911 75.2743 119.673 77.9169C120.662 79.8571 120.797 81.8052 121.907 80.9986C124.866 78.8668 123.279 74.0208 126.852 71.6258C126.859 71.6258 126.859 71.618 126.868 71.618C127.937 71.0434 129.149 70.4999 130.505 70.0289C136.878 67.8254 142.398 65.9732 143.729 61.6138C146.243 63.1063 148.484 67.4097 148.173 80.6708Z" fill="#FFA8A7"/>
<path d="M135.612 90.714C136.426 90.714 137.086 90.0534 137.086 89.2385C137.086 88.4236 136.426 87.7631 135.612 87.7631C134.798 87.7631 134.138 88.4236 134.138 89.2385C134.138 90.0534 134.798 90.714 135.612 90.714Z" fill="#B16668"/>
<path d="M134.626 78.9664C134.671 79.8579 134.012 80.6123 133.155 80.6536C132.298 80.6941 131.568 80.005 131.523 79.1135C131.478 78.2228 132.136 77.4676 132.994 77.4263C133.85 77.3866 134.581 78.0757 134.626 78.9664Z" fill="#263238"/>
<path d="M146.415 79.1198C146.456 79.9303 145.857 80.6163 145.077 80.6529C144.221 80.6942 143.638 80.1445 143.593 79.2537C143.553 78.444 144.151 77.7573 144.93 77.7199C145.71 77.6833 146.374 78.3101 146.415 79.1198Z" fill="#263238"/>
<path d="M132.628 82.97C129.839 82.97 127.569 80.698 127.569 77.906C127.569 74.463 131.114 74.463 132.628 74.463C134.143 74.463 137.687 74.463 137.687 77.906C137.687 80.698 135.417 82.97 132.628 82.97ZM132.628 75.2611C129.562 75.2611 128.366 76.0023 128.366 77.9052C128.366 80.2574 130.278 82.1712 132.628 82.1712C134.978 82.1712 136.889 80.2574 136.889 77.9052C136.889 76.0023 135.695 75.2611 132.628 75.2611Z" fill="#455A64"/>
<path d="M145.471 82.97C142.682 82.97 140.413 80.698 140.413 77.906C140.413 74.463 143.957 74.463 145.471 74.463C146.985 74.463 150.53 74.463 150.53 77.906C150.53 80.698 148.261 82.97 145.471 82.97ZM145.471 75.2611C142.405 75.2611 141.21 76.0023 141.21 77.9052C141.21 80.2574 143.121 82.1712 145.471 82.1712C147.821 82.1712 149.733 80.2574 149.733 77.9052C149.733 76.0023 148.538 75.2611 145.471 75.2611Z" fill="#455A64"/>
<path d="M138.472 76.2733L138.722 85.7294L143.694 84.1878L138.472 76.2733Z" fill="#F28F8F"/>
<path d="M133.669 95.2306C130.057 94.7564 122.627 92.6199 121.469 89.6799C121.469 89.6799 121.855 91.5283 124.075 93.432C126.294 95.3357 133.669 97.4807 133.669 97.4807V95.2306Z" fill="#F28F8F"/>
<path d="M133.84 71.681L130.545 73.6914C130.005 72.7422 130.306 71.5222 131.216 70.9678C132.126 70.4127 133.3 70.7319 133.84 71.681Z" fill="#263238"/>
<path d="M147.262 73.9227L143.591 72.6395C143.91 71.6032 144.99 71.0512 146.004 71.4055C147.018 71.7589 147.581 72.8864 147.262 73.9227Z" fill="#263238"/>
<path d="M137.288 78.3085C137.067 78.3085 136.89 78.1263 136.89 77.9052C136.89 77.2574 138.17 76.8385 139.319 76.8385C140.468 76.8385 141.211 77.2574 141.211 77.9052C141.211 78.1255 141.033 78.3046 140.812 78.3046C140.591 78.3046 140.413 78.1263 140.413 77.9052C140.377 77.832 140.009 77.6366 139.319 77.6366C138.629 77.6366 137.724 77.8312 137.685 77.9122C137.685 78.1333 137.508 78.3085 137.288 78.3085Z" fill="#455A64"/>
<path d="M127.98 77.9714C127.966 77.9714 127.951 77.9706 127.935 77.969L119.043 77.1577C118.883 77.0106 118.463 76.5745 117.586 76.2109L128.024 77.1748C128.243 77.199 128.4 77.3975 128.376 77.6163C128.354 77.8195 128.181 77.9714 127.98 77.9714Z" fill="#455A64"/>
<path d="M91.4754 87.2468C94.3831 83.3577 96.3659 80.4201 99.02 77.0869C100.528 75.1941 101.491 73.8432 102.94 71.9014C103.939 70.5646 104.523 69.4371 105.63 69.0229C106.875 68.5565 108.074 67.6347 108.875 66.793C109.447 66.1912 109.915 65.4998 110.41 64.8325C112.071 62.5909 114.056 60.5907 116.283 58.9105C118.624 57.1446 121.224 55.7992 123.626 54.1174C125.059 53.1138 126.595 51.4468 124.852 49.8904C124.331 49.4256 123.669 49.1484 122.989 48.9997C118.756 48.0739 115.063 49.5346 110.922 50.5942C109.123 51.0544 107.353 51.6313 105.651 52.3765C104.825 52.7377 104.002 53.1309 103.317 53.7172C102.25 54.6313 101.611 55.9323 100.918 57.1547C99.0565 60.4373 95.2006 63.3345 92.4874 65.8891C89.3035 68.8867 86.458 71.6343 82.8261 74.9418C79.5575 77.9184 76.3596 80.663 73.3617 83.9137C70.8818 86.6029 71.7842 88.7067 72.1373 89.4331C74.1582 93.594 76.4211 95.0858 79.1242 97.6629C83.8063 102.127 99.9332 114.97 105.283 119.208C106.428 120.116 107.328 121.292 107.906 122.634L108.927 125.008C115.026 126.132 119.095 116.967 114.044 105.932C113.225 104.142 111.925 102.619 110.336 101.459C103.968 96.8119 91.4754 87.2468 91.4754 87.2468Z" fill="#FFA8A7"/>
<path d="M91.4756 87.2468C91.4756 87.2468 88.718 90.9366 84.022 92.3817C84.022 92.3817 87.9121 93.3752 93.2367 88.5915L91.4756 87.2468Z" fill="#F28F8F"/>
<path d="M170.553 143.969L170.572 143.971L169.576 143.111L169.575 143.124C169.35 142.943 169.001 142.886 168.55 143.009L157.749 145.95C156.748 146.223 155.661 147.239 155.322 148.221L147.549 170.667C147.369 171.187 147.441 171.588 147.692 171.814L147.684 171.817L148.712 172.704V172.69C148.936 172.878 149.29 172.936 149.747 172.813L160.548 169.873C161.549 169.6 162.636 168.584 162.975 167.602C164.502 163.19 169.222 149.567 170.748 145.155C170.938 144.601 170.844 144.185 170.553 143.969Z" fill="#455A64"/>
<path d="M148.549 171.528L156.322 149.082C156.661 148.101 157.748 147.085 158.749 146.812L169.55 143.871C170.55 143.599 171.087 144.173 170.747 145.154C169.221 149.566 164.501 163.189 162.974 167.601C162.634 168.582 161.548 169.599 160.547 169.872L149.746 172.812C148.745 173.084 148.209 172.509 148.549 171.528Z" fill="#27DEBF"/>
<path d="M157.573 147.435C157.011 147.88 156.527 148.492 156.32 149.084L148.545 171.523C148.377 172.027 148.426 172.422 148.653 172.649L147.686 171.82L147.696 171.81C147.44 171.582 147.37 171.188 147.548 170.664L155.323 148.214C155.511 147.662 155.955 147.099 156.478 146.654L157.573 147.435Z" fill="#37474F"/>
<path d="M167.586 154.198C166.824 156.485 164.109 158.01 159.648 159.068C155.188 160.126 152.716 164.868 153.437 166.311C154.158 167.753 161.367 169.093 164.25 168.681C167.134 168.269 170.034 164.097 170.907 162.806C171.78 161.515 172.797 152.498 171.87 151.262C170.944 150.025 168.996 150.215 168.996 150.215L167.586 154.198Z" fill="#F28F8F"/>
<rect y="170" width="287" height="4" rx="2" fill="#FF7070"/>
</svg>
