<svg width="287" height="127" viewBox="0 0 287 127" fill="none" xmlns="http://www.w3.org/2000/svg">
<path d="M209.078 42.9371V121.078H89.9219V42.9371C123.463 18.5557 110.037 28.3669 147.355 0.708691C147.989 0.237832 148.741 0 149.5 0C149.877 0 150.254 0.0576563 150.617 0.177773C150.708 0.206602 150.797 0.240234 150.886 0.27627C150.975 0.314707 151.062 0.353145 151.148 0.398789C151.234 0.442031 151.319 0.490078 151.4 0.54293C151.484 0.593379 151.566 0.648633 151.645 0.708691C188.216 27.8071 174.847 18.0608 209.078 42.9371Z" fill="#FF7D47"/>
<path d="M209.078 42.9371V121.078H149.5V0C149.877 0 150.254 0.0576563 150.617 0.177773C150.708 0.206602 150.797 0.240234 150.886 0.27627C150.975 0.314707 151.062 0.353145 151.148 0.398789C151.234 0.442031 151.319 0.490078 151.4 0.54293C151.484 0.593379 151.566 0.648633 151.645 0.708691C188.216 27.8071 174.847 18.0608 209.078 42.9371Z" fill="#FF7D47"/>
<path d="M183.854 3.60352V88.4062C183.854 90.3954 182.239 92.0098 180.25 92.0098H118.75C116.761 92.0098 115.146 90.3954 115.146 88.4062V3.60352C115.146 1.61438 116.761 0 118.75 0H180.25C182.239 0 183.854 1.61438 183.854 3.60352Z" fill="#EEF4FF"/>
<path d="M183.854 3.60352V88.4062C183.854 90.3954 182.239 92.0098 180.25 92.0098H149.5V0H180.25C182.239 0 183.854 1.61438 183.854 3.60352Z" fill="#D9E6FC"/>
<path d="M143.769 79.7338L93.7279 43.2141C92.6322 42.4143 91.1805 42.2978 89.9709 42.9123C88.7618 43.5271 88 44.7686 88 46.125V119.396C88 121.397 89.6257 123 91.603 123C92.3569 123 93.1062 122.764 93.7366 122.301L143.777 85.5491C145.734 84.1116 145.742 81.1742 143.769 79.7338Z" fill="#FFE278"/>
<path d="M209.029 42.9126C207.82 42.2978 206.368 42.4148 205.272 43.2143L155.231 79.7338C153.27 81.1651 153.253 84.1025 155.223 85.5489L205.263 122.301C205.894 122.764 206.643 123 207.397 123C209.375 123 211 121.396 211 119.396V46.125C211 44.7686 210.238 43.5271 209.029 42.9126Z" fill="#FFB454"/>
<path d="M88.1803 120.518C88.6656 121.998 90.0469 123 91.6037 123H207.397C208.953 123 210.335 121.998 210.82 120.518C211.305 119.039 210.786 117.415 209.53 116.492L151.633 73.9706C150.365 73.0385 148.635 73.0385 147.367 73.9706L89.4704 116.492C88.214 117.415 87.6951 119.039 88.1803 120.518Z" fill="#FF9D21"/>
<path d="M88.1803 120.518C88.6656 121.998 90.0469 123 91.6037 123H149.5V73.2715C148.751 73.2715 148.001 73.5045 147.367 73.9706L89.4704 116.492C88.214 117.415 87.6951 119.039 88.1803 120.518Z" fill="#FFB454"/>
<rect y="123" width="287" height="4" rx="2" fill="#FF7070"/>
</svg>
