<svg width="287" height="202" viewBox="0 0 287 202" fill="none" xmlns="http://www.w3.org/2000/svg">
<g clip-path="url(#clip0)">
<path d="M137.635 138.973H110V71.9472C110 59.8267 119.817 50 131.927 50H134.481C146.59 50 156.407 59.8259 156.407 71.9472V120.185C156.406 130.562 148.002 138.973 137.635 138.973Z" fill="#263238"/>
<path d="M180.246 87.698C180.116 92.9759 179.573 96.4243 179.417 97.079C178.788 99.7272 178.135 100.075 172.831 104.139C165.67 109.624 159.515 114.597 153.058 119.495C148.449 122.991 144.157 122.991 140.083 122.19C137.236 121.63 144.52 111.213 148.338 104.975L166.539 93.2616C167.117 92.7783 167.448 92.1255 167.468 91.4274L168.287 79.2517L173.892 74.7132C173.892 74.7138 180.413 80.945 180.246 87.698Z" fill="#FFA8A7"/>
<path d="M125.318 101.934C122.077 102.157 116.179 102.676 116.179 102.676C112.777 104.577 111.917 106.135 111.284 110.658C111.015 112.582 112.582 117.716 113.928 125.01L116.481 138.537L116.204 145.245C114.878 149.339 108.142 163.001 105.501 170.5C120.501 172.5 133.623 171.768 143.501 170.5C151.034 169.532 156.672 171.802 158.001 170C157.725 162.592 155.045 151.603 154.916 143.862C154.863 140.61 155.058 137.331 155.184 133.589C160.238 129.434 160.295 122.524 157.538 118.056C151.134 107.678 144.907 101.144 140.783 101.479L125.318 101.934Z" fill="#27DEBF"/>
<path opacity="0.6" d="M125.318 101.934C122.077 102.157 116.18 102.676 116.18 102.676C112.777 104.577 111.918 106.135 111.285 110.658C111.015 112.582 112.582 117.716 113.928 125.01L116.482 138.537L115.5 146.5C111.82 150.138 104.5 185 95.7979 171.255C112.5 177 144.004 175.318 151.501 173C159.034 172.032 156.671 174.302 158 172.5C159.693 165.414 155.045 151.603 154.916 143.862C154.863 140.61 155.058 137.331 155.184 133.589C160.238 129.434 160.296 122.524 157.539 118.056C151.134 107.678 144.908 101.144 140.783 101.479L125.318 101.934Z" fill="white"/>
<path opacity="0.1" d="M145.131 133.701C145.131 133.701 139.199 138.309 132.429 135.906C125.659 133.503 124.671 127.58 124.671 127.58C124.671 127.58 123.952 135.326 132.492 137.968C140.733 140.516 145.131 133.701 145.131 133.701Z" fill="black"/>
<path d="M153.174 80.6708C152.918 91.9122 149.273 94.6903 147.447 95.4883C145.62 96.2864 142.095 95.7998 138.673 95.2329V101.98C138.673 101.98 142.622 106.122 142.326 109.213C142.023 112.31 136.12 112.653 131.685 109.628C128.449 107.421 126.137 104.898 125.129 103.702C124.762 103.267 124.563 102.72 124.563 102.15V86.2759C124.563 86.2759 122.688 88.2637 119.37 85.9886C116.06 83.7213 115.773 79.4896 117.799 77.0947C119.243 75.3942 122.912 75.2743 124.674 77.9169C125.663 79.8571 125.798 81.8052 126.908 80.9986C129.867 78.8668 128.28 74.0208 131.853 71.6258C131.86 71.6258 131.86 71.618 131.869 71.618C132.938 71.0434 134.15 70.4999 135.506 70.0289C141.879 67.8254 147.399 65.9732 148.73 61.6138C151.244 63.1063 153.485 67.4097 153.174 80.6708Z" fill="#FFA8A7"/>
<path d="M142 92.5C143.214 93.8829 147.001 89.9144 147.001 89.1631C147.001 88.4118 141.41 88 140.553 88C139.696 88 139.001 88.609 139.001 89.3603C139.001 90.1116 141.143 92.5 142 92.5Z" fill="white"/>
<path d="M139.627 78.9664C139.672 79.8579 138.857 78.4587 138.001 78.5C137.144 78.5405 136.569 80.005 136.524 79.1135C136.479 78.2228 137.137 77.4676 137.995 77.4263C138.851 77.3866 139.582 78.0757 139.627 78.9664Z" fill="#263238"/>
<path d="M151.415 79.1198C151.456 79.9303 150.71 78.4635 149.931 78.5001C149.074 78.5413 148.639 80.1445 148.594 79.2537C148.553 78.444 149.151 77.7573 149.931 77.7199C150.71 77.6833 151.375 78.3101 151.415 79.1198Z" fill="#263238"/>
<path d="M137.63 82.97C134.84 82.97 132.57 80.698 132.57 77.906C132.57 74.463 136.115 74.463 137.63 74.463C139.144 74.463 142.689 74.463 142.689 77.906C142.689 80.698 140.418 82.97 137.63 82.97ZM137.63 75.2611C134.563 75.2611 133.368 76.0023 133.368 77.9052C133.368 80.2574 135.28 82.1712 137.63 82.1712C139.98 82.1712 141.891 80.2574 141.891 77.9052C141.891 76.0023 140.696 75.2611 137.63 75.2611Z" fill="#455A64"/>
<path d="M150.472 82.97C147.682 82.97 145.413 80.698 145.413 77.906C145.413 74.463 148.958 74.463 150.472 74.463C151.985 74.463 155.531 74.463 155.531 77.906C155.531 80.698 153.261 82.97 150.472 82.97ZM150.472 75.2611C147.405 75.2611 146.21 76.0023 146.21 77.9052C146.21 80.2574 148.122 82.1712 150.472 82.1712C152.822 82.1712 154.734 80.2574 154.734 77.9052C154.734 76.0023 153.539 75.2611 150.472 75.2611Z" fill="#455A64"/>
<path d="M143.474 76.2733L143.723 85.7294L148.696 84.1878L143.474 76.2733Z" fill="#F28F8F"/>
<path d="M138.67 95.2306C135.058 94.7564 127.628 92.6199 126.47 89.6799C126.47 89.6799 126.856 91.5283 129.076 93.432C131.295 95.3357 138.67 97.4807 138.67 97.4807V95.2306Z" fill="#F28F8F"/>
<path d="M138.841 71.681L135.546 73.6914C135.006 72.7422 135.306 71.5222 136.216 70.9678C137.126 70.4127 138.301 70.7319 138.841 71.681Z" fill="#263238"/>
<path d="M152.264 73.9227L148.593 72.6395C148.912 71.6032 149.991 71.0512 151.006 71.4055C152.019 71.7589 152.583 72.8864 152.264 73.9227Z" fill="#263238"/>
<path d="M142.289 78.3085C142.068 78.3085 141.891 78.1263 141.891 77.9052C141.891 77.2574 143.171 76.8385 144.32 76.8385C145.469 76.8385 146.212 77.2574 146.212 77.9052C146.212 78.1255 146.034 78.3046 145.813 78.3046C145.592 78.3046 145.414 78.1263 145.414 77.9052C145.378 77.832 145.01 77.6366 144.32 77.6366C143.63 77.6366 142.725 77.8312 142.686 77.9122C142.686 78.1333 142.509 78.3085 142.289 78.3085Z" fill="#455A64"/>
<path d="M132.981 77.9714C132.966 77.9714 132.951 77.9706 132.936 77.969L124.044 77.1577C123.884 77.0106 123.464 76.5745 122.587 76.2109L133.024 77.1748C133.243 77.199 133.4 77.3975 133.377 77.6163C133.354 77.8195 133.182 77.9714 132.981 77.9714Z" fill="#455A64"/>
<path d="M89.9802 98.0261C91.3507 93.3676 92.1857 89.9231 93.5121 85.8741C94.2657 83.5746 94.6977 81.9729 95.3802 79.6475C95.8499 78.0467 96.0054 76.7861 96.8979 76.0125C97.9028 75.1414 98.7059 73.8594 99.1629 72.7916C99.4891 72.0282 99.6872 71.217 99.9184 70.4192C100.695 67.7391 101.859 65.1726 103.361 62.8217C104.939 60.3509 106.908 58.1838 108.573 55.7707C109.566 54.3307 110.426 52.2329 108.249 51.3814C107.6 51.127 106.883 51.0979 106.193 51.1956C101.903 51.8025 98.95 54.4585 95.438 56.8945C93.9119 57.9527 92.4541 59.1101 91.1184 60.4015C90.4699 61.028 89.8347 61.6836 89.3974 62.4716C88.7155 63.7003 88.5702 65.1423 88.3464 66.5296C87.7453 70.255 85.1405 74.3142 83.4873 77.654C81.5474 81.5731 79.8376 85.14 77.5856 89.5057C75.5589 93.4347 73.5177 97.1214 71.8402 101.213C70.4528 104.598 72.0316 106.255 72.6157 106.813C75.9597 110.009 78.6005 110.619 82.0322 112.093C87.9764 114.646 107.567 121.065 114.059 123.174C115.449 123.626 116.701 124.415 117.711 125.471L119.495 127.341C125.603 126.269 126.224 116.261 117.645 107.677C116.254 106.285 114.504 105.31 112.61 104.776C105.023 102.639 89.9802 98.0261 89.9802 98.0261Z" fill="#FFA8A7"/>
<path d="M90 97C90 97 85.696 100.69 81 102.135C81 102.135 84.8902 103.128 90.2147 98.3446L90 97Z" fill="#F28F8F"/>
<path d="M182.103 48.0256L182.123 48.0271L181.126 47.1668L181.126 47.18C180.901 46.9994 180.551 46.9425 180.1 47.0655L169.299 50.0063C168.298 50.2788 167.212 51.2949 166.872 52.2767L159.1 74.723C158.92 75.2431 158.992 75.6441 159.243 75.8699L159.235 75.873L160.263 76.7598V76.7466C160.487 76.9342 160.841 76.9926 161.298 76.8688L172.099 73.9288C173.1 73.6563 174.187 72.6402 174.526 71.6584C176.053 67.2461 180.772 53.6229 182.299 49.2114C182.489 48.657 182.395 48.2412 182.103 48.0256Z" fill="#455A64"/>
<path d="M160.1 75.5841L167.873 53.1378C168.212 52.1568 169.299 51.1407 170.3 50.8682L181.101 47.9274C182.101 47.6549 182.638 48.2295 182.298 49.2106C180.772 53.6221 176.053 67.2453 174.526 71.6576C174.186 72.6386 173.1 73.6555 172.098 73.928L161.297 76.868C160.297 77.1397 159.761 76.5651 160.1 75.5841Z" fill="#27DEBF"/>
<path d="M169.124 51.4911C168.561 51.9357 168.078 52.5477 167.871 53.1402L160.096 75.5795C159.928 76.0832 159.977 76.478 160.204 76.7053L159.237 75.8761L159.247 75.866C158.99 75.6386 158.921 75.2439 159.099 74.7199L166.874 52.2705C167.062 51.7177 167.506 51.1548 168.028 50.7102L169.124 51.4911Z" fill="#37474F"/>
<path d="M92 18.6143C93.65 17.2885 95.2737 16.1106 97.3283 15.4914C99.791 14.7492 101.334 14.4367 100.95 17.6324C100.527 21.1551 98.7308 24.293 98.2136 27.7577C97.7455 30.894 101.589 30.3054 103.622 30.108C104.258 30.0462 110.518 29.0332 110.303 29.4641C108.824 32.4226 109.603 34.6428 112.75 36.1606C116.632 38.0331 121.253 38.253 125.483 38.5431C128.041 38.7185 126.533 39.1557 125.032 40.0562" stroke="white" stroke-linecap="round" stroke-linejoin="round"/>
<path d="M182.569 24.4144C183.227 25.6136 183.794 26.7795 183.956 28.1566C184.151 29.8073 184.177 30.8241 182.186 30.2203C179.992 29.5546 178.198 28.0579 176.051 27.3387C174.108 26.6877 174.05 29.1999 173.947 30.5158C173.914 30.9275 173.854 35.0249 173.604 34.8393C171.888 33.5648 170.388 33.8105 169.068 35.6422C167.439 37.902 166.779 40.8174 166.118 43.4764C165.718 45.0847 165.61 44.0757 165.206 43.0192" stroke="white" stroke-linecap="round" stroke-linejoin="round"/>
<circle cx="153" cy="30" r="2" fill="white"/>
<circle cx="81" cy="66" r="2" fill="white"/>
</g>
<path d="M168.578 80.4194C168.528 78.2205 166.582 76.1689 162.997 74.0625C159.412 71.9562 158.535 67.16 159.545 66.0912C160.555 65.0223 167.163 65.7627 169.553 66.8866C171.943 68.0113 173.344 72.4233 173.756 73.782C174.168 75.1407 172.643 83.285 171.509 84.1191C170.375 84.954 168.737 84.2718 168.737 84.2718L168.578 80.4194Z" fill="#FFA8A7"/>
<rect y="171" width="287" height="4" rx="2" fill="#FF7070"/>
<defs>
<clipPath id="clip0">
<rect x="69" width="151" height="202" rx="5" fill="white"/>
</clipPath>
</defs>
</svg>
